<?xml version="1.0" encoding="utf-8"?>
<svg version="1.1" id="Layer_1" xmlns="http://www.w3.org/2000/svg" xmlns:xlink="http://www.w3.org/1999/xlink" x="0px" y="0px"
	 viewBox="0 0 500 500" style="enable-background:new 0 0 500 500;" xml:space="preserve">
<style type="text/css">
	.st0{fill:#406EB2;}
	.st1{fill:#632678;}
	.st2{fill:#992982;}
	.st3{fill:#BA2E7D;}
	.st4{fill:#26478C;}
</style>
<g id="XMLID_1_">
	<path id="XMLID_3_" class="st0" d="M120.7,198.9h-12.3c-3.7,0-6.6-3-6.6-6.6v-12.3c0-3.7,3-6.6,6.6-6.6h12.3c3.7,0,6.6,3,6.6,6.6
		v12.3C127.3,195.9,124.3,198.9,120.7,198.9z"/>
	<path id="XMLID_4_" class="st1" d="M88.8,226.5H75c-4.1,0-7.5-3.3-7.5-7.5v-13.9c0-4.1,3.3-7.5,7.5-7.5h13.9c4.1,0,7.5,3.3,7.5,7.5
		V219C96.3,223.1,92.9,226.5,88.8,226.5z"/>
	<path id="XMLID_5_" class="st2" d="M87.5,255.2H79c-2.5,0-4.6-2-4.6-4.6v-8.5c0-2.5,2-4.6,4.6-4.6h8.5c2.5,0,4.6,2,4.6,4.6v8.5
		C92.1,253.2,90,255.2,87.5,255.2z"/>
	<path id="XMLID_6_" class="st3" d="M110.2,282h-10c-3,0-5.4-2.4-5.4-5.4v-10c0-3,2.4-5.4,5.4-5.4h10c3,0,5.4,2.4,5.4,5.4v10
		C115.6,279.6,113.2,282,110.2,282z"/>
	<path id="XMLID_7_" class="st3" d="M146.9,203.9H140c-2.1,0-3.7-1.7-3.7-3.7v-6.9c0-2.1,1.7-3.7,3.7-3.7h6.9c2.1,0,3.7,1.7,3.7,3.7
		v6.9C150.6,202.2,148.9,203.9,146.9,203.9z"/>
	<path id="XMLID_32_" class="st4" d="M327.4,267.2c2.2,0,4-1.8,4-4c0-2.2-1.8-4-4-4c-2.2,0-4,1.8-4,4
		C323.4,265.4,325.2,267.2,327.4,267.2z M181.5,309.8c-0.6,0.9-1.6,1.4-2.7,1.4c-0.6,0-1.3-0.2-1.9-0.5c-0.8-0.5-1.5-1.7-1.5-2.9
		c0-0.5,0.2-1.1,0.5-1.5l9.3-14.6l-9.3-14.6c-0.3-0.5-0.5-1.1-0.5-1.6c0-1.1,0.5-2.2,1.5-2.8c0.5-0.3,1.1-0.5,1.7-0.5
		c1.1,0,2.2,0.5,2.8,1.4l7.6,12l7.6-12c0.6-0.9,1.7-1.4,2.8-1.4c0.6,0,1.2,0.2,1.7,0.5c1,0.5,1.5,1.7,1.5,2.8c0,0.5-0.2,1.2-0.5,1.6
		l-9.3,14.6l9.3,14.6c0.3,0.5,0.5,1,0.5,1.5c0,1.2-0.6,2.3-1.5,2.9c-0.5,0.3-1.2,0.5-1.9,0.5c-1.1,0-2.1-0.5-2.7-1.4l-7.6-11.9
		L181.5,309.8z M227.9,278.4c-7.4,0-13.3,5.9-13.3,13.4c0,7.4,5.9,13.3,13.3,13.3c7.5,0,13.4-5.9,13.4-13.3
		C241.2,284.2,235.4,278.4,227.9,278.4z M214.6,276.8c3.5-3.2,8.2-5.1,13.3-5.1c11.1,0,20,8.9,20,20c0,11-8.9,19.8-20,19.8
		c-5.1,0-9.8-1.9-13.3-5.1v17.1c0,1.7-1.5,3.2-3.3,3.2c-1.6,0-3.2-1.5-3.2-3.2v-48.3c0-1.7,1.6-3.2,3.2-3.2c1.8,0,3.3,1.5,3.3,3.2
		V276.8z M304.4,288.1v20c0,1.7-1.6,3.2-3.2,3.2c-1.8,0-3.3-1.5-3.3-3.2v-32.9c0-1.7,1.5-3.2,3.3-3.2c1.5,0,3.2,1.4,3.2,3
		c2.7-2.1,6.2-3.2,10-3.3c2.1,0,3.6,1.6,3.6,3.2c0,1.8-1.6,3.4-3.6,3.4C309.2,278.5,304.4,280.4,304.4,288.1z M327.4,272
		c-1.8,0-3.3,1.5-3.3,3.2v32.9c0,1.7,1.5,3.2,3.3,3.2c1.6,0,3.2-1.5,3.2-3.2v-32.9C330.7,273.5,329,272,327.4,272z M356.1,304.9
		c7.4,0,13.3-5.9,13.3-13.4c0-7.4-5.9-13.3-13.3-13.3c-7.5,0-13.4,5.9-13.4,13.3C342.7,299.1,348.6,304.9,356.1,304.9z M369.4,275.2
		c0-1.7,1.5-3.2,3.3-3.2c1.6,0,3.2,1.5,3.2,3.2v32.9c0,1.7-1.6,3.2-3.2,3.2c-1.8,0-3.3-1.5-3.3-3.2v-1.6c-3.6,3.2-8.2,5.1-13.3,5.1
		c-11.1,0-20-8.9-20-20c0-11,8.9-19.8,20-19.8c5.1,0,9.7,1.9,13.3,5.1V275.2z M409.4,288.5c0-5.5-4.8-10.3-10.3-10.3
		c-5.3,0-10.3,2.2-10.3,9.9v20c0,1.7-1.6,3.2-3.2,3.2c-1.8,0-3.3-1.5-3.3-3.2v-32.9c0-1.7,1.5-3.2,3.3-3.2c1.5,0,3.2,1.4,3.2,3
		c2.8-2.2,6.3-3.3,10.2-3.3c9,0,16.9,7,16.9,15.8v20.5c0,1.7-1.6,3.2-3.2,3.2c-1.8,0-3.3-1.5-3.3-3.2V288.5z M153.8,278.3
		c6,0,11,3.8,12.7,9.2h-25.4C142.8,282.1,147.8,278.3,153.8,278.3z M173.7,290.5c-0.2-10.1-9.2-18.8-19.8-18.8
		c-11.1,0-20,8.9-20,19.8c0,11.1,8.9,20,20,20c5.3,0,10.3-2.1,13.8-5.6c0.7-0.6,1.2-1.5,1.2-2.5c0-1.8-1.5-3.3-3.3-3.3
		c-1,0-1.9,0.6-2.6,1.3c-2.2,2.4-5.6,3.5-9,3.5c-6.6,0-12-4.6-13.2-10.9h29.8l0.1,0h0.1c0.1,0,0.1,0,0.2,0c0.1,0,0.2,0,0.3-0.1
		C172.5,293.6,173.7,292.2,173.7,290.5z M272.4,278.3c6,0,11,3.8,12.7,9.2h-25.4C261.4,282.1,266.4,278.3,272.4,278.3z M292.3,290.5
		c-0.2-10.1-9.2-18.8-19.8-18.8c-11.1,0-20,8.9-20,19.8c0,11.1,8.9,20,20,20c5.3,0,10.3-2.1,13.8-5.6c0.7-0.6,1.2-1.5,1.2-2.5
		c0-1.8-1.5-3.3-3.3-3.3c-1,0-1.9,0.6-2.6,1.3c-2.2,2.4-5.6,3.5-9,3.5c-6.6,0-12-4.6-13.2-10.9H289l0.1,0h0.1c0.1,0,0.2,0,0.3-0.1
		c0,0,0.1,0,0.1,0C291,293.6,292.3,292.3,292.3,290.5z M141.1,228.8c1.7-5.4,6.7-9.2,12.7-9.2c6,0,11,3.8,12.7,9.2H141.1z
		 M153.8,213.1c-11.1,0-20,8.9-20,19.8c0,11.1,8.9,20,20,20c5.3,0,10.3-2.1,13.8-5.6c0.7-0.6,1.2-1.5,1.2-2.5c0-1.8-1.5-3.3-3.3-3.3
		c-1,0-1.9,0.6-2.6,1.3c-2.2,2.4-5.6,3.5-9,3.5c-6.6,0-12-4.6-13.2-10.9h29.8l0.1,0h0.1c0.1,0,0.2,0,0.3-0.1c0,0,0.1,0,0.1,0
		c1.5-0.3,2.7-1.7,2.7-3.5C173.5,221.7,164.5,213.1,153.8,213.1z M217.6,246.3c-7.5,0-13.4-5.9-13.4-13.4c0-7.4,5.9-13.3,13.4-13.3
		c7.4,0,13.3,5.9,13.3,13.3C230.9,240.4,225.1,246.3,217.6,246.3z M234.3,213.4c-1.8,0-3.3,1.5-3.3,3.2v1.6
		c-3.6-3.2-8.2-5.1-13.3-5.1c-11.1,0-20,8.9-20,19.8c0,11.1,8.9,20,20,20c5.1,0,9.7-1.9,13.3-5.1v1.6c0,1.7,1.5,3.2,3.3,3.2
		c1.6,0,3.2-1.5,3.2-3.2v-32.9C237.5,214.8,235.9,213.4,234.3,213.4z M290.6,246.3c-7.5,0-13.4-5.9-13.4-13.4
		c0-7.4,5.9-13.3,13.4-13.3c7.4,0,13.3,5.9,13.3,13.3C303.9,240.4,298,246.3,290.6,246.3z M307.2,213.4c-1.8,0-3.3,1.5-3.3,3.2v1.6
		c-3.6-3.2-8.2-5.1-13.3-5.1c-11.1,0-20,8.9-20,19.8c0,11.1,8.9,20,20,20c5.1,0,9.7-1.9,13.3-5.1v1.6c0,1.7,1.5,3.2,3.3,3.2
		c1.6,0,3.2-1.5,3.2-3.2v-32.9C310.5,214.8,308.9,213.4,307.2,213.4z M195.5,213.1c-3.8,0.1-7.3,1.2-10,3.3c-0.1-1.6-1.7-3-3.2-3
		c-1.8,0-3.3,1.5-3.3,3.2v32.9c0,1.7,1.5,3.2,3.3,3.2c1.6,0,3.2-1.5,3.2-3.2v-20c0-7.7,4.8-9.6,10-9.7c2,0,3.6-1.6,3.6-3.4
		C199.1,214.7,197.5,213.1,195.5,213.1z M123.7,232.1c-2.4-1.3-5-2.6-7.4-3.9c-1-0.6-1.9-1.2-2.7-2c-1.9-1.9-1.6-4.7,0.6-5.9
		c0.7-0.4,1.5-0.6,2.2-0.7c2.3-0.3,4.3,0.3,6.3,1.4c1,0.6,2.1,1,3.2,1.2c1.2,0.2,2.2-0.3,2.9-1.3c0.7-1,0.7-2,0.1-3
		c-0.5-0.8-1.1-1.5-1.8-2c-2.8-2.1-5.9-2.9-9.4-3c-2.5,0-4.9,0.6-7.1,1.8c-4.8,2.7-6.6,7.8-4.6,12.8c1,2.4,2.8,4.2,5.1,5.4
		c2,1.1,4,2.1,6.1,3.1c1.7,0.9,3.4,1.8,4.7,3.2c1.6,1.7,2,3.7,0.9,5.3c-0.8,1.2-2,1.7-3.4,2c-2.7,0.4-5.2-0.2-7.5-1.7
		c-0.8-0.5-1.6-1-2.5-1.3c-2.5-1-4.8,0.9-4.4,3.4c0.2,1.1,0.9,1.9,1.8,2.7c4.4,3.8,12.3,4.7,17.5,2.1c5.6-2.8,7.6-8.8,4.7-14.5
		C127.9,234.9,125.9,233.3,123.7,232.1z M261,232.1c-2.4-1.3-5-2.6-7.4-3.9c-1-0.6-1.9-1.2-2.7-2c-1.9-1.9-1.6-4.7,0.6-5.9
		c0.7-0.4,1.5-0.6,2.2-0.7c2.3-0.3,4.3,0.3,6.3,1.4c1,0.6,2.1,1,3.2,1.2c1.2,0.2,2.2-0.3,2.9-1.3c0.7-1,0.7-2,0.1-3
		c-0.5-0.8-1.1-1.5-1.8-2c-2.8-2.1-5.9-2.9-9.4-3c-2.5,0-4.9,0.6-7.1,1.8c-4.8,2.7-6.6,7.8-4.6,12.8c1,2.4,2.8,4.2,5.1,5.4
		c2,1.1,4,2.1,6.1,3.1c1.7,0.9,3.4,1.8,4.7,3.2c1.6,1.7,2,3.7,0.9,5.3c-0.8,1.2-2,1.7-3.4,2c-2.7,0.4-5.2-0.2-7.5-1.7
		c-0.8-0.5-1.6-1-2.5-1.3c-2.5-1-4.8,0.9-4.4,3.4c0.2,1.1,0.9,1.9,1.8,2.7c4.4,3.8,12.3,4.7,17.5,2.1c5.6-2.8,7.6-8.8,4.7-14.5
		C265.1,234.9,263.2,233.3,261,232.1z M422.9,311.3c-0.3,0-0.5-0.2-0.5-0.5v-5.6h-1.2c-0.3,0-0.5-0.2-0.5-0.5c0-0.3,0.2-0.5,0.5-0.5
		h3.6c0.3,0,0.5,0.2,0.5,0.5c0,0.3-0.2,0.5-0.5,0.5h-1.3v5.6C423.4,311.1,423.2,311.3,422.9,311.3z M429.3,311.3
		c-0.3,0-0.5-0.2-0.5-0.4l-1.6-4.6v4.4c0,0.3-0.2,0.5-0.5,0.5c-0.3,0-0.5-0.2-0.5-0.5v-5.9c0-0.4,0.4-0.8,0.8-0.8
		c0.3,0,0.7,0.2,0.8,0.6l1.6,4.6l1.6-4.6c0.1-0.4,0.4-0.6,0.8-0.6c0.4,0,0.8,0.4,0.8,0.8v5.9c0,0.3-0.2,0.5-0.5,0.5
		c-0.3,0-0.5-0.2-0.5-0.5v-4.4c-0.2,0.7-0.6,1.8-0.9,2.7c-0.6,1.8-0.6,1.8-0.6,1.9C429.7,311.2,429.6,311.3,429.3,311.3z"/>
</g>
</svg>
